<svg xmlns="http://www.w3.org/2000/svg" width="24" height="24" viewBox="0 0 24 24"><g fill="none" fill-rule="evenodd"><path d="M0 0h24v24H0z"></path><path fill="#000" fill-rule="nonzero" d="M13.497 10.933c2.486 0 4.502-2 4.502-4.466C18 4 15.983 2 13.497 2 11.01 2 8.994 4 8.994 6.467c0 2.466 2.016 4.466 4.503 4.466zm0-7.543c1.713 0 3.101 1.377 3.101 3.077 0 1.699-1.388 3.076-3.101 3.076s-3.102-1.377-3.102-3.076c.016-1.688 1.4-3.048 3.102-3.048v-.03zm7.944 13.528c.85 2.442 1.02 5.022-1.61 5.082H7.192c-1.62 0-2.181-1.002-2.181-2.333l-2.441-1.36a1.11 1.11 0 0 1-.57-.992v-4.804a1.11 1.11 0 0 1 .57-.992l4.382-2.442a1.129 1.129 0 0 1 1.09 0l4.383 2.442c.14.082.26.194.35.327a5.146 5.146 0 0 0 3.462-.794 11.792 11.792 0 0 1 5.203 5.866zM3.431 12.66v4.486l4.102 2.283 4.103-2.283V12.66l-4.103-2.283-4.102 2.283zm17.07 7.742h-.04c.17-.258.27-1.171-.35-3.057a9.944 9.944 0 0 0-3.913-4.715 6.517 6.517 0 0 1-2.781.626h-.42v4.06c.008.409-.21.79-.57.992L8.283 20.58H19.88c.18 0 .51-.03.62-.179zM8.484 17.067l-1.01-.536-1.001.536a.503.503 0 0 1-.24.06.532.532 0 0 1-.402-.195.523.523 0 0 1-.109-.43l.25-1.172-.8-.804a.533.533 0 0 1 .28-.903l1.1-.169.491-.992a.51.51 0 0 1 .92 0l.49.992 1.102.169a.533.533 0 1 1 .28.903l-.8.804.2 1.171a.532.532 0 0 1-.51.625.503.503 0 0 1-.241-.059z"></path></g></svg>