<svg width="24" height="24" viewBox="0 0 24 24" xmlns="http://www.w3.org/2000/svg"><g id="Zeplin-guideline" fill="none" fill-rule="evenodd"><g id="DebugSvg_IconDebug"><path id="DebugSvg_Rectangle" d="M0 0h24v24H0z"></path><path d="M20.122 7.544l.7 1.212-1.959 1.132a7.958 7.958 0 0 1 1.135 3.912H22.2v1.4h-2.29a7.948 7.948 0 0 1-1.047 2.913l1.96 1.13-.7 1.213-2.088-1.204A7.981 7.981 0 0 1 12 22c-2.089 0-3.99-.8-5.416-2.112l.992-.99a6.575 6.575 0 0 0 3.724 1.665l-.001-5.389 1.4-1.4.002 6.79a6.6 6.6 0 0 0 5.65-8.363l-4.078-.001 1.4-1.4h2.101a6.619 6.619 0 0 0-.876-1.224l.991-.99c.05.053.098.107.145.162l2.088-1.204zm.152-4.735l.99.99L3.5 21.49l-.99-.989L20.274 2.81zM16.7 2.3v1.4A2.3 2.3 0 0 0 14.4 6v.366c.19.06.376.126.56.2l-1.1 1.1A6.598 6.598 0 0 0 6.226 10.8l4.499-.001-1.4 1.4H5.648A6.605 6.605 0 0 0 5.4 14c0 .646.093 1.27.266 1.86l-1.1 1.1a7.944 7.944 0 0 1-.476-1.76H1.8v-1.4h2.203l.002-.08a7.957 7.957 0 0 1 1.132-3.833l-1.96-1.13.7-1.213 2.088 1.205a8.013 8.013 0 0 1 3.334-2.282L9.3 6a2.3 2.3 0 0 0-2.143-2.295L7 3.7V2.3a3.7 3.7 0 0 1 3.695 3.503L10.7 6v.105a8.056 8.056 0 0 1 2.3-.043V6a3.7 3.7 0 0 1 3.7-3.7z" id="Combined-Shape" fill="#333" fill-rule="nonzero"></path></g></g></svg>