<svg xmlns="http://www.w3.org/2000/svg" width="24" height="24" viewBox="0 0 24 24">
    <g fill="none" fill-rule="evenodd">
        <path d="M0 0h24v24H0z"></path>
        <path fill="#000" fill-rule="nonzero"
              d="M20.612 19.844l2.28 2.125-.86.922-2.335-2.176a4.684 4.684 0 0 1-2.726.863c-1.643 0-3.088-.83-3.886-2.078H4.991C3.89 19.5 3 18.712 3 17.74V3.76C3 2.788 3.891 2 4.99 2h13.936c1.1 0 1.991.788 1.991 1.76v11.365c.38.63.596 1.359.596 2.138 0 .97-.336 1.862-.901 2.58zm-.956-6.061V3.76c0-.239-.294-.499-.73-.499H4.991c-.435 0-.73.26-.73.5V17.74c0 .239.295.499.73.499h7.554a4.127 4.127 0 0 1-.117-.976c0-2.392 2.042-4.315 4.543-4.315 1.003 0 1.932.31 2.685.835zm-9.095-5.965a.4.4 0 0 1-.123.288l-2.191 2.168 2.191 2.168a.4.4 0 0 1 0 .575l-.298.295a.406.406 0 0 1-.582 0l-2.78-2.75a.399.399 0 0 1 0-.576l2.78-2.75a.406.406 0 0 1 .582 0l.298.295a.4.4 0 0 1 .123.287zm3.63-.582l2.78 2.75a.4.4 0 0 1 0 .576l-2.78 2.75a.405.405 0 0 1-.583 0l-.298-.295a.399.399 0 0 1 0-.575l2.191-2.168-2.191-2.168a.398.398 0 0 1 0-.575l.298-.296a.407.407 0 0 1 .582 0zm2.78 13.08c1.82 0 3.28-1.375 3.28-3.053s-1.46-3.054-3.28-3.054c-1.82 0-3.282 1.376-3.282 3.054s1.461 3.054 3.282 3.054z"></path>
    </g>
</svg>