<svg xmlns="http://www.w3.org/2000/svg" width="138" height="36" viewBox="0 0 138 36"><path d="M34.19 35.901c-2.4-.349-4.498-1.364-6.1-2.951-1.336-1.324-2.203-2.78-2.841-4.774-.998-3.115-.998-7.118-.001-10.17.966-2.956 3.14-5.53 5.802-6.865 3.686-1.85 8.874-1.734 12.288.275 3.072 1.808 4.933 5.022 5.451 9.412.158 1.34.056 4.172-.193 5.34-1.02 4.784-3.987 8.125-8.336 9.385a13.99 13.99 0 0 1-1.614.352c-.888.124-3.598.121-4.457-.004zm1.437-1.775c.655.297 1.854.28 2.531-.035 1.869-.87 2.87-3.374 3.197-7.99.456-6.434-.6-11.804-2.69-13.693-.94-.85-2.404-1.128-3.46-.658-1.541.687-2.531 2.719-3 6.158-.333 2.449-.299 7.447.068 9.695.577 3.545 1.73 5.786 3.354 6.523zm41.05 1.774c-.982-.1-3.98-.599-5.028-.837l-.725-.165.056-3.87c.136-9.318.153-14.405.065-19.353-.086-4.846-.111-5.358-.298-6.075-.237-.908-.579-1.542-.99-1.835-.16-.113-.593-.275-.964-.358-1.232-.277-1.165-.232-1.198-.794-.018-.324.017-.538.1-.603.11-.088 10.214-2.015 10.535-2.01.093.002.106 1.293.059 5.74-.034 3.156-.038 5.738-.01 5.738.028 0 .398-.16.82-.356 1.275-.588 2.45-.844 4.156-.904 1.136-.04 1.663-.014 2.246.106 3.81.789 6.63 3.908 7.616 8.425.257 1.178.353 4.106.182 5.573-.145 1.25-.56 2.935-.992 4.028-1.63 4.125-5.127 6.815-9.766 7.515-1.07.16-4.425.181-5.864.035zm2.06-1.74c.893.094 1.896.06 2.363-.078.726-.216 1.653-.875 2.212-1.571 1.151-1.438 1.979-3.662 2.434-6.545.218-1.38.247-5.26.048-6.376-.61-3.43-1.786-5.524-3.576-6.372-.89-.423-2.148-.475-3.316-.138l-.791.228-.09 3.116c-.113 3.929.071 17.358.24 17.562.062.074.276.152.476.173zm26.381 1.691c-4.908-.885-8.417-4.366-9.564-9.484-.148-.658-.213-1.395-.25-2.82-.059-2.255.125-3.654.707-5.393 1.117-3.34 3.12-5.705 6.028-7.123 3.07-1.497 7.267-1.595 9.984-.233 3.06 1.533 4.86 4.594 5.316 9.039.061.599.097 1.31.079 1.583l-.033.494-7.32.026-7.32.025.027.865c.065 2.004.495 3.776 1.292 5.317.362.7.65 1.082 1.351 1.79 1.582 1.597 3.156 2.215 5.639 2.215 1.8 0 3.095-.36 4.449-1.235.379-.245.763-.445.854-.445.206 0 .682.612.682.878 0 .436-1.42 1.842-2.804 2.777-1.134.766-2.932 1.46-4.49 1.732-1.093.191-3.546.187-4.627-.008zm-2.557-15.842c.054.087 4.489.029 6.554-.086l1.029-.058-.06-1.547c-.121-3.135-.734-5.253-1.804-6.24-.398-.367-.934-.599-1.388-.6-.112 0-.444.07-.737.158-.426.126-.664.29-1.186.816-.97.977-1.675 2.565-2.115 4.763-.183.912-.368 2.673-.293 2.794zm22.343 15.938c-1.763-.189-4.568-.803-5.502-1.204l-.456-.196-.062-2.26a480.455 480.455 0 0 1-.088-3.694l-.025-1.433.273-.13c.15-.073.454-.14.675-.15l.4-.02.342.842c1.333 3.28 2.896 5.049 4.938 5.587.779.205 2.24.207 2.816.003 1.615-.57 2.5-1.793 2.508-3.463.01-1.979-1.078-2.93-5.187-4.534-2.545-.995-3.433-1.506-4.49-2.589-1.141-1.167-1.688-2.496-1.791-4.347-.124-2.236.576-4.121 2.127-5.728 1.56-1.617 3.587-2.493 6.347-2.745 2.43-.221 6.162.294 8.117 1.122l.356.15.064 2.015c.035 1.108.071 2.593.08 3.3l.017 1.286-.479.178c-.757.281-.807.246-1.228-.87-1.181-3.128-2.553-4.609-4.69-5.06-1.303-.276-2.391.02-3.182.865-.617.66-.858 1.246-.916 2.23-.064 1.066.127 1.642.778 2.354.803.879 2.118 1.637 4.737 2.731 3.209 1.341 4.74 2.48 5.572 4.143.54 1.08.694 1.943.64 3.604-.042 1.247-.081 1.503-.365 2.34-.925 2.728-3.012 4.525-6.236 5.367-1.092.285-1.248.3-3.42.324-1.25.013-2.453.005-2.67-.018zM.13 35.353c-.082-.034-.123-.28-.123-.737 0-.82-.052-.783 1.533-1.077 1.216-.225 1.651-.456 2.188-1.16C4.771 31.013 4.996 28.385 5 17.562 5 7.397 4.803 5.259 3.727 3.688c-.478-.697-1.283-1.075-2.632-1.237L.057 2.327.03 1.516 0 .705.325.647C.505.615 6.793.602 14.3.617l13.65.028.063.396c.036.217.093 2.45.129 4.96l.064 4.566-.704.214c-1.059.321-1.053.325-1.53-.936-1.17-3.097-2.512-4.882-4.349-5.783-1.266-.621-1.852-.696-5.43-.696H13.08l-.053.519c-.1.974-.26 7.239-.259 10.19l.001 2.943.916-.006c.503-.003 1.495-.04 2.205-.082 1.067-.064 1.384-.12 1.83-.327 1.097-.508 1.843-1.625 2.3-3.444l.236-.94.807-.028.808-.03V24.05l-.808-.029-.808-.028-.229-.94c-.43-1.766-1.26-3.03-2.284-3.483-.474-.21-1.644-.328-3.91-.397l-1.063-.033v2.233c0 2.433.134 5.725.306 7.512.239 2.49.875 3.866 2.018 4.365.218.095.909.249 1.535.343.625.093 1.215.21 1.31.26.242.124.256 1.414.017 1.506-.187.072-17.645.066-17.824-.005zm48.767-.02c-.09-.057-.12-.285-.1-.765l.03-.683.347-.074c.19-.04.6-.121.909-.179.958-.179 1.508-.699 1.818-1.717.252-.83.364-3.484.37-8.813.006-6.519-.13-8.058-.788-8.93-.358-.474-.615-.608-1.482-.774-.428-.083-.878-.17-1-.196-.199-.041-.223-.106-.223-.59 0-.472.03-.557.223-.637.296-.121 10.096-2.08 10.41-2.08h.243l-.047 1.459c-.027.802-.069 1.97-.094 2.597l-.046 1.137.355-.64c1.137-2.05 2.411-3.322 4.106-4.099.93-.426 1.552-.553 2.701-.553 1.363 0 2.726.444 2.726.89 0 .299-2.402 6.645-2.534 6.696-.065.024-.534-.155-1.042-.399-1.061-.509-2.056-.758-3.022-.756-1.203.003-2.547.446-3.077 1.015-.227.243-.228.258-.284 3.893-.056 3.6.064 7.99.266 9.756.172 1.504.572 2.245 1.398 2.59.275.115 2.018.353 2.586.354.043 0 .066.345.05.767l-.03.766-7.32.024c-4.026.013-7.378-.013-7.45-.058z"></path></svg>