<svg xmlns="http://www.w3.org/2000/svg" width="25" height="24" viewBox="0 0 25 24">
    <g fill="none" fill-rule="evenodd">
        <path d="M1 0h24v24H1z"></path>
        <path fill="#231815" fill-rule="nonzero"
              d="M15.9 2c.738 0 1.477.34 1.98.865L18 3l3.3 3.7c.367.458.65 1.085.617 1.725L21.9 8.6v10.6c0 .8-.3 1.5-.8 2-.455.455-1.157.744-1.807.793L19.1 22H6.8c-.7 0-1.5-.3-2-.8a2.765 2.765 0 0 1-.793-1.784L4 19.2V4.8c0-.8.4-1.5.9-2 .455-.455 1.157-.744 1.807-.793L6.9 2h9zm-.7 1.4H6.9c-.4 0-.7.1-1 .4-.171.257-.343.514-.388.834L5.5 4.8v14.4c0 .4.1.7.4 1 .262.262.525.372.854.395l.146.005h12.3l.139-.006a1.357 1.357 0 0 0 1.255-1.255l.006-.139V8.7h-4c-.753 0-1.329-.531-1.394-1.261L15.2 7.3V3.4zm.64 8.539a.95.95 0 0 1 .432.431l.575 1.166 1.286.187a.95.95 0 0 1 .527 1.62l-.931.907.22 1.281a.95.95 0 0 1-1.379 1.002l-1.15-.605-1.15.605a.95.95 0 0 1-1.379-1.002l.22-1.28-.93-.908a.95.95 0 0 1 .526-1.62l1.286-.187.575-1.166a.95.95 0 0 1 1.272-.431zm-.42 1.417l-.63 1.277-1.41.204 1.02.994-.24 1.404 1.26-.663 1.26.663-.24-1.404 1.02-.994-1.41-.204-.63-1.277zM11 11.9v1.2H7v-1.2h4zm2-3v1.2H7V8.9h6zm3.5-5.3v2.9c0 .367.252.65.602.694l.098.006h2.6l-2.9-3.3c-.1-.1-.3-.2-.4-.3zM13 5.9v1.2H7V5.9h6z"></path>
    </g>
</svg>