<svg xmlns="http://www.w3.org/2000/svg" width="206" height="36" viewBox="0 0 206 36"><path fill-rule="evenodd" d="M58.176 26.158h-3.181v-7.142H48.82v7.142h-4.18V9.946h4.181v5.934h6.174V9.946h4.181l-1 16.212zm12.324-3.19V20.42c-.53.044-1.103.104-1.72.18s-1.085.165-1.405.267c-.392.123-.691.303-.898.539-.207.236-.31.546-.31.93 0 .255.021.462.065.621.043.16.152.312.326.458.167.145.367.252.6.32.232.07.595.104 1.088.104.392 0 .79-.08 1.192-.24.403-.159.757-.37 1.062-.63zm0 1.895c-.21.16-.472.352-.784.577a5.709 5.709 0 0 1-.882.533 5.56 5.56 0 0 1-1.198.387 6.892 6.892 0 0 1-1.36.125c-1.162 0-2.135-.36-2.919-1.078-.784-.718-1.176-1.637-1.176-2.755 0-.892.2-1.622.6-2.188.398-.566.965-1.013 1.698-1.34.726-.326 1.626-.558 2.7-.696a47.218 47.218 0 0 1 3.343-.305v-.066c0-.675-.276-1.141-.828-1.399-.551-.257-1.364-.386-2.439-.386-.646 0-1.335.114-2.068.343a28.32 28.32 0 0 0-1.58.528h-.359v-2.951c.414-.109 1.087-.238 2.02-.387a17.77 17.77 0 0 1 2.804-.223c2.229 0 3.838.343 4.829 1.03.99.685 1.486 1.761 1.486 3.228v8.318H70.5v-1.295zm13.861 1.622c-1.067 0-2.041-.127-2.923-.381a6.436 6.436 0 0 1-2.303-1.176 5.329 5.329 0 0 1-1.503-2.003c-.356-.806-.533-1.75-.533-2.831 0-1.14.19-2.124.571-2.951a5.568 5.568 0 0 1 1.595-2.058 6.494 6.494 0 0 1 2.287-1.133 10 10 0 0 1 2.69-.359c.834 0 1.604.09 2.308.272a10.9 10.9 0 0 1 1.97.708v3.343h-.555c-.152-.13-.336-.283-.55-.457a4.959 4.959 0 0 0-.79-.512 5.168 5.168 0 0 0-.979-.398 4.39 4.39 0 0 0-1.241-.157c-1.046 0-1.85.332-2.412.996-.563.664-.844 1.566-.844 2.706 0 1.176.289 2.068.866 2.678.577.61 1.395.915 2.455.915.494 0 .938-.056 1.334-.169.395-.113.724-.245.985-.397.247-.146.465-.298.654-.458.188-.16.363-.316.522-.468h.556v3.343c-.617.29-1.262.52-1.933.691a9.04 9.04 0 0 1-2.227.256zm19.73-.327h-4.562l-3.43-5.324-1.067 1.296v4.028h-3.92V9.216h3.92v10.115l4.225-5.4h4.518l-4.399 5.27 4.715 6.957zm14.024-5.39h-8.972c.058.959.423 1.692 1.095 2.2.671.508 1.66.762 2.967.762a6.67 6.67 0 0 0 2.406-.446c.777-.298 1.39-.617 1.84-.958h.436v3.146c-.886.356-1.72.614-2.505.774-.784.16-1.651.24-2.602.24-2.454 0-4.334-.553-5.64-1.656-1.307-1.103-1.96-2.675-1.96-4.715 0-2.018.619-3.616 1.856-4.796 1.238-1.18 2.935-1.77 5.09-1.77 1.99 0 3.485.503 4.487 1.509 1.002 1.005 1.502 2.451 1.502 4.339v1.372zm-3.898-2.297c-.021-.82-.225-1.437-.61-1.85-.384-.415-.983-.621-1.796-.621-.755 0-1.376.196-1.862.587-.486.392-.759 1.02-.817 1.884h5.085zm15.527-.806h-.348c-.167-.058-.436-.101-.806-.13-.37-.03-.679-.044-.925-.044-.56 0-1.053.037-1.481.11-.429.072-.89.195-1.383.37v8.187h-3.92V13.931h3.92v1.796c.864-.74 1.615-1.232 2.254-1.475.639-.243 1.227-.365 1.764-.365.138 0 .294.004.468.011.174.007.327.018.457.033v3.734zm24.804 8.493h-4.029l-6.881-11.128v11.128h-3.833V9.946h4.998l5.912 9.287V9.946h3.833v16.212zm15.963-5.39h-8.972c.058.959.422 1.692 1.094 2.2.671.508 1.66.762 2.967.762a6.67 6.67 0 0 0 2.406-.446c.777-.298 1.39-.617 1.84-.958h.436v3.146c-.886.356-1.72.614-2.504.774-.784.16-1.652.24-2.603.24-2.453 0-4.333-.553-5.64-1.656-1.306-1.103-1.96-2.675-1.96-4.715 0-2.018.619-3.616 1.857-4.796 1.237-1.18 2.934-1.77 5.09-1.77 1.989 0 3.484.503 4.486 1.509 1.002 1.005 1.503 2.451 1.503 4.339v1.372zm-3.898-2.297c-.022-.82-.225-1.437-.61-1.85-.385-.415-.984-.621-1.797-.621-.755 0-1.375.196-1.862.587-.486.392-.758 1.02-.816 1.884h5.085zm26.165-4.54l-3.79 12.227h-4.159l-2.493-8.242-2.45 8.242h-4.214l-3.757-12.227h4.116l2.09 8.427 2.614-8.427h3.473l2.483 8.427 2.058-8.427h4.029zm12.968 8.351c0 1.263-.566 2.281-1.699 3.054-1.132.773-2.682 1.16-4.65 1.16-1.088 0-2.075-.102-2.96-.305-.886-.203-1.598-.428-2.135-.675v-3.223h.36c.195.138.422.289.68.452.258.163.622.34 1.094.528.407.167.868.31 1.383.43s1.067.18 1.655.18c.77 0 1.34-.086 1.71-.256.37-.17.555-.423.555-.757 0-.297-.11-.513-.327-.648-.218-.134-.631-.263-1.241-.386-.29-.066-.684-.136-1.182-.213a12.595 12.595 0 0 1-1.355-.277c-1.11-.29-1.935-.742-2.472-1.356-.537-.613-.806-1.377-.806-2.292 0-1.176.558-2.154 1.672-2.934 1.114-.78 2.637-1.17 4.568-1.17.914 0 1.79.092 2.63.277.838.185 1.493.383 1.964.593v3.093h-.337a7.977 7.977 0 0 0-1.987-.975 7.04 7.04 0 0 0-2.26-.376c-.631 0-1.163.088-1.595.262-.432.174-.648.42-.648.74 0 .29.098.512.294.664.196.153.657.305 1.383.458.4.08.83.158 1.29.234.461.076.924.172 1.389.288 1.03.269 1.793.692 2.286 1.269.494.577.74 1.297.74 2.161zM0 0h36v36H0V0zm16.8 20.4v7.56h2.4v-7.44l6.24-11.76H22.8l-3.6 7.32c-.24.36-.48.72-.6 1.08-.12.48-.36.72-.48 1.08-.12-.12-.12-.36-.24-.48-.12-.24-.12-.36-.24-.6v-.12l-.12-.12c-.12-.24-.12-.36-.24-.48s-.24-.24-.24-.36l-3.6-7.32h-2.88L16.8 20.4z"></path></svg>