<svg xmlns="http://www.w3.org/2000/svg" width="24" height="24" viewBox="0 0 24 24"><g fill="none" fill-rule="evenodd"><path d="M0 0h24v24H0z"></path><path fill="#000" fill-rule="nonzero" d="M18.844 2h-.312a14.884 14.884 0 0 0-10.71 5.725l-3.84 1.75a2.326 2.326 0 0 0-1.368 1.993 2.323 2.323 0 0 0 1.145 2.127l.58.343-1.248 1.417a2.316 2.316 0 0 0-.467 2.215l-.479 1.285a2.326 2.326 0 0 0 .283 2.154 2.353 2.353 0 0 0 1.944.99c.317 0 .632-.063.924-.187l1.046-.443a2.325 2.325 0 0 0 2.483-.399l1.58-1.417.156.31a2.317 2.317 0 0 0 2.082 1.273h.078a2.315 2.315 0 0 0 2.037-1.417l1.86-4.264a17.128 17.128 0 0 0 5.332-9.79 3.1 3.1 0 0 0-.686-2.559A3.135 3.135 0 0 0 18.844 2zM4.628 10.86l1.614-.732a18.851 18.851 0 0 0-1.113 2.448l-.58-.343a.774.774 0 0 1 .079-1.374zm-.846 9.335a.761.761 0 0 1-.19-.83l.134-.344 1.202 1.196-.3.122a.771.771 0 0 1-.858-.122l.012-.022zm2.894-.432l-2.371-2.359a.773.773 0 0 1 0-1.107l.568-.643 3.55 3.533-.634.565a.78.78 0 0 1-1.124.044l.011-.033zm6.68-.665a.78.78 0 0 1-1.414 0l-.29-.487c.842-.38 1.657-.816 2.438-1.307l-.734 1.794zM20.403 5.4a15.481 15.481 0 0 1-4.988 9.058h-.055l-.056.133A18.406 18.406 0 0 1 9.27 17.98l-3.173-3.156c.624-2.47 3.34-10.321 12.602-11.218h.145c.469 0 .913.207 1.213.565.29.34.416.789.346 1.229zm-5.444 1.03a2.776 2.776 0 0 1 2.772 2.768c0 1.121-.68 2.131-1.72 2.56a2.794 2.794 0 0 1-3.035-.606 2.758 2.758 0 0 1-.596-3.02 2.783 2.783 0 0 1 2.579-1.702zm0 4.208c.799 0 1.447-.645 1.447-1.44 0-.795-.648-1.44-1.447-1.44-.8 0-1.447.645-1.447 1.44 0 .795.647 1.44 1.447 1.44z"></path></g></svg>