<svg xmlns="http://www.w3.org/2000/svg" width="162" height="20" viewBox="0 0 162 20">
    <g fill="#000">
        <path d="M38.712 11.778c0-.744.131-1.457.393-2.139a5.309 5.309 0 0 1 1.14-1.798 5.395 5.395 0 0 1 1.831-1.23c.725-.303 1.55-.455 2.475-.455 1.255 0 2.311.265 3.167.796.856.53 1.497 1.223 1.926 2.077l-3.23.972c-.428-.69-1.056-1.034-1.884-1.034a2.24 2.24 0 0 0-1.729.765c-.463.51-.693 1.192-.693 2.046 0 .428.062.816.186 1.168.124.351.297.651.517.9.221.247.48.44.777.578.297.138.61.207.942.207.414 0 .793-.1 1.139-.3.344-.2.6-.458.766-.775l3.23.992c-.401.84-1.04 1.53-1.916 2.067-.876.538-1.943.806-3.198.806-.912 0-1.729-.155-2.454-.465a5.625 5.625 0 0 1-1.842-1.24 5.231 5.231 0 0 1-1.15-1.799 5.902 5.902 0 0 1-.393-2.139zm17.515 5.643c-.924 0-1.749-.151-2.474-.455a5.382 5.382 0 0 1-1.832-1.23 5.192 5.192 0 0 1-1.129-1.798 6.057 6.057 0 0 1-.382-2.14c0-.743.127-1.456.382-2.138a5.19 5.19 0 0 1 1.13-1.799 5.516 5.516 0 0 1 1.831-1.24c.725-.31 1.55-.465 2.474-.465.925 0 1.746.155 2.464.465.718.31 1.325.724 1.822 1.24a5.333 5.333 0 0 1 1.139 1.799c.262.682.393 1.395.393 2.139 0 .744-.128 1.457-.383 2.14a5.19 5.19 0 0 1-1.128 1.798 5.388 5.388 0 0 1-1.832 1.23c-.725.303-1.55.454-2.475.454zm11.946 0a4.964 4.964 0 0 1-2.06-.423 4.783 4.783 0 0 1-1.625-1.19 5.599 5.599 0 0 1-1.066-1.787 6.34 6.34 0 0 1-.383-2.243c0-.785.116-1.522.352-2.211a5.421 5.421 0 0 1 .993-1.788c.428-.503.935-.9 1.522-1.189a4.31 4.31 0 0 1 1.936-.434c.746 0 1.428.18 2.05.538A3.69 3.69 0 0 1 71.32 8.14V2.125h3.313v11.369c0 .33.062.562.186.692.124.132.345.21.662.238v2.79a7.984 7.984 0 0 1-1.594.166c-1.159-.028-1.821-.49-1.987-1.385l-.062-.579c-.4.675-.925 1.178-1.574 1.51a4.538 4.538 0 0 1-2.09.495zm14.348 0c-.911 0-1.729-.148-2.454-.444a5.445 5.445 0 0 1-1.842-1.21A5.167 5.167 0 0 1 77.075 14a5.686 5.686 0 0 1-.393-2.098c0-.785.131-1.526.394-2.222a5.38 5.38 0 0 1 1.138-1.83 5.329 5.329 0 0 1 1.832-1.24c.725-.302 1.55-.454 2.475-.454.924 0 1.745.152 2.463.455a5.415 5.415 0 0 1 1.822 1.23 5.214 5.214 0 0 1 1.129 1.787c.255.676.383 1.386.383 2.13 0 .193-.008.382-.02.568a3.976 3.976 0 0 1-.063.486h-8.033c.055.73.32 1.285.797 1.664.476.379 1.018.568 1.625.568.483 0 .949-.117 1.398-.351.448-.235.748-.551.9-.951l2.816.785c-.428.855-1.09 1.55-1.988 2.088-.897.538-1.973.806-3.23.806zm24.471-.206h-3.312v-6.098c0-.717-.128-1.237-.384-1.56-.255-.324-.596-.487-1.024-.487-.442 0-.873.18-1.294.538a3.09 3.09 0 0 0-.922 1.385v6.222h-3.312v-6.098c0-.717-.128-1.237-.383-1.56-.255-.324-.597-.487-1.025-.487-.442 0-.873.176-1.294.528-.421.351-.728.816-.921 1.395v6.222h-3.312V6.362h2.98v1.82c.4-.662.946-1.165 1.636-1.51.69-.344 1.491-.516 2.402-.516.441 0 .834.055 1.18.166.345.11.638.261.88.454.241.193.442.417.6.672.16.255.272.527.342.816.4-.675.939-1.195 1.615-1.56s1.449-.548 2.318-.548c.69 0 1.246.128 1.667.382.42.256.749.586.983.992.235.407.39.852.466 1.334.076.482.114.95.114 1.405v6.946zm7.37.206c-.91 0-1.728-.148-2.453-.444a5.445 5.445 0 0 1-1.842-1.21 5.167 5.167 0 0 1-1.15-1.767 5.686 5.686 0 0 1-.393-2.098c0-.785.131-1.526.393-2.222a5.38 5.38 0 0 1 1.14-1.83 5.329 5.329 0 0 1 1.831-1.24c.725-.302 1.55-.454 2.475-.454.924 0 1.745.152 2.463.455a5.415 5.415 0 0 1 1.822 1.23 5.214 5.214 0 0 1 1.128 1.787c.256.676.384 1.386.384 2.13 0 .193-.008.382-.021.568a3.976 3.976 0 0 1-.062.486h-8.033c.055.73.32 1.285.797 1.664.476.379 1.017.568 1.625.568.483 0 .949-.117 1.398-.351.448-.235.748-.551.9-.951l2.816.785c-.428.855-1.09 1.55-1.988 2.088-.897.538-1.974.806-3.23.806zm17.785-.206h-3.312v-6.098c0-.717-.135-1.237-.404-1.56-.27-.324-.625-.487-1.067-.487-.234 0-.472.049-.714.145-.242.097-.47.231-.683.403a3.521 3.521 0 0 0-.59.61c-.18.235-.318.49-.414.765v6.222h-3.313V6.362h2.981v1.82c.4-.648.966-1.147 1.698-1.499.732-.351 1.574-.527 2.526-.527.704 0 1.274.128 1.708.382.435.256.77.586 1.004.992.234.407.39.852.466 1.334.076.482.114.95.114 1.405v6.946zm9.172-.58c-.456.194-.973.373-1.553.538a6.461 6.461 0 0 1-1.78.248c-.414 0-.805-.051-1.17-.155a2.614 2.614 0 0 1-.963-.496 2.32 2.32 0 0 1-.652-.899c-.159-.372-.238-.82-.238-1.344V8.864h-1.387V6.362h1.387V2.911h3.313v3.451h2.215v2.502h-2.215v4.526c0 .359.093.617.279.776.187.158.417.237.693.237.235 0 .483-.041.746-.123.262-.083.497-.173.704-.27l.62 2.626zm6.314.786c-.924 0-1.749-.151-2.474-.455a5.38 5.38 0 0 1-1.832-1.23 5.192 5.192 0 0 1-1.129-1.798 6.057 6.057 0 0 1-.382-2.14c0-.743.127-1.456.382-2.138a5.19 5.19 0 0 1 1.13-1.799 5.514 5.514 0 0 1 1.831-1.24c.725-.31 1.55-.465 2.474-.465.925 0 1.746.155 2.464.465.718.31 1.325.724 1.822 1.24a5.333 5.333 0 0 1 1.139 1.799c.262.682.393 1.395.393 2.139 0 .744-.128 1.457-.383 2.14a5.19 5.19 0 0 1-1.128 1.798 5.39 5.39 0 0 1-1.832 1.23c-.725.303-1.55.454-2.475.454zm14.306-8.226c-.8.014-1.521.144-2.163.392-.642.248-1.115.62-1.418 1.117v6.51h-3.313V6.363h3.044v2.192c.386-.73.873-1.3 1.46-1.706.586-.406 1.21-.623 1.873-.65.276 0 .448.006.517.02v2.977zm-16.728 2.604c0 .855.228 1.54.683 2.057.456.516 1.035.775 1.74.775.344 0 .662-.069.952-.207.29-.138.541-.33.755-.579.214-.248.383-.548.507-.899a3.41 3.41 0 0 0 .187-1.147c0-.854-.228-1.54-.683-2.057a2.194 2.194 0 0 0-1.719-.775 2.259 2.259 0 0 0-1.729.785 2.777 2.777 0 0 0-.507.9 3.424 3.424 0 0 0-.186 1.147zm-91.406 0c0 .855.228 1.54.684 2.057.455.516 1.034.775 1.738.775.345 0 .663-.069.953-.207.29-.138.541-.33.756-.579.213-.248.382-.548.506-.899a3.41 3.41 0 0 0 .187-1.147c0-.854-.228-1.54-.683-2.057a2.194 2.194 0 0 0-1.719-.775 2.259 2.259 0 0 0-1.729.785 2.777 2.777 0 0 0-.507.9 3.424 3.424 0 0 0-.186 1.147zm15.259 2.832c.455 0 .89-.135 1.304-.404.414-.268.738-.636.973-1.105v-2.274a2.987 2.987 0 0 0-1.004-1.354c-.463-.351-.942-.527-1.44-.527-.358 0-.686.08-.983.238a2.632 2.632 0 0 0-.776.63c-.22.262-.39.565-.507.91-.117.344-.176.71-.176 1.095 0 .814.241 1.482.725 2.005.482.524 1.11.786 1.884.786zm15.755-3.866c-.07-.689-.318-1.233-.745-1.633-.429-.4-.96-.599-1.595-.599-.649 0-1.184.204-1.605.61-.42.406-.665.947-.734 1.622h4.68zm31.842 0c-.07-.689-.318-1.233-.746-1.633-.428-.4-.959-.599-1.594-.599-.649 0-1.184.204-1.605.61-.42.406-.665.947-.734 1.622h4.679zM29.398 17.265v1.181c0 .748-.607 1.353-1.355 1.353H1.355A1.354 1.354 0 0 1 0 18.446v-1.18h1.73V1.705C1.73.764 2.495 0 3.438 0H25.96c.944 0 1.709.764 1.709 1.706v15.559h1.729zm-12.914.808a.808.808 0 0 0 .809-.808h8.647V1.726H3.459v15.539h8.646c0 .446.362.808.809.808h3.57zm-6.088-4.612a.864.864 0 1 1 0 1.727H6.897a.864.864 0 1 1 0-1.727h3.499zm.844-3.198a.864.864 0 1 1 0 1.727H6.917a.864.864 0 1 1 0-1.727h4.323zm7.328-1.678a2.592 2.592 0 0 1-2.594-2.59c0-1.43 1.162-2.59 2.594-2.59a2.592 2.592 0 0 1 2.594 2.59c0 1.43-1.161 2.59-2.594 2.59zm5.073 5.5a1.25 1.25 0 0 1-1.231 1.454h-7.683a1.25 1.25 0 0 1-1.231-1.454C13.88 11.69 15.2 9.757 16.92 8.99a3.367 3.367 0 0 0 3.295 0c1.72.766 3.04 2.7 3.425 5.094zm-9.807-6.156a.864.864 0 0 1-.864.864H8.646l-.043-.002H6.917a.864.864 0 1 1 0-1.727h2.594l.043.002h3.416c.477 0 .864.387.864.863zM6.917 5.594a.864.864 0 1 1 0-1.726h.403l.03-.002h5.618a.864.864 0 1 1 0 1.727H7.811l-.03.001h-.864z"></path>
    </g>
</svg>