<svg xmlns="http://www.w3.org/2000/svg" width="209" height="36" viewBox="0 0 209 36"><path fill-rule="evenodd" d="M153.245 22.632c0 1.18.008 2.361-.006 3.542a.91.91 0 0 0 .265.685c.729.775 1.621 1.278 2.615 1.608 2.33.773 4.711.164 6.147-1.584 1-1.216 1.371-2.654 1.389-4.203.017-1.548-.308-3.003-1.28-4.24-2.469-3.146-6.974-2.293-9.007.127-.085.102-.117.276-.118.417-.009 1.216-.005 2.432-.005 3.648zM160.216 36c-.615-.104-1.24-.17-1.843-.318-1.917-.47-3.496-1.522-4.835-2.959-.077-.082-.142-.175-.281-.226v2.817h-8.063V.164h8.046V12.83l.354-.396c2.058-2.307 4.646-3.368 7.698-3.185 4.61.277 7.779 2.7 9.429 6.966 1.74 4.5 1.664 9.079-.29 13.51-1.5 3.4-4.155 5.457-7.83 6.102-.443.077-.893.117-1.34.174h-1.045zM58.021 27.627c.322-1.266-.512-1.809-1.459-2.28a4.181 4.181 0 0 0-.291-.127c-.98-.397-2.005-.544-3.056-.518-.86.02-1.693.182-2.454.604-.642.356-1.125.85-1.345 1.564-.435 1.412.258 2.743 1.762 3.35 1.093.441 2.232.49 3.386.32 1.105-.164 2.136-.507 2.995-1.254.314-.273.548-.57.468-1.027-.035-.205-.006-.42-.006-.632zM49.565 36c-.674-.118-1.364-.18-2.02-.363-2.765-.77-4.929-2.323-5.887-5.076-1.059-3.044-.773-5.983 1.407-8.528 1.26-1.473 2.98-2.221 4.869-2.543 2.57-.437 5.075-.159 7.47.895.93.41 1.756.972 2.438 1.729.037.04.081.073.218.091-.042-1.07 0-2.15-.15-3.205-.152-1.078-.895-1.811-1.863-2.298-1.277-.642-2.648-.764-4.05-.652-2.338.19-4.387 1.092-6.212 2.527-.073.057-.151.109-.243.174l-3.058-5.675c.587-.413 1.145-.845 1.742-1.218 2.419-1.51 5.078-2.326 7.912-2.606 2.546-.252 5.066-.126 7.524.633 2.441.754 4.388 2.13 5.546 4.453.794 1.592 1.046 3.3 1.049 5.051.009 5.208.003 10.415.003 15.623 0 .092-.01.184-.017.304h-8.207v-2.43c-.072.024-.112.025-.13.044-1.564 1.664-3.56 2.473-5.767 2.861-.522.092-1.052.14-1.579.209h-.995zm85.018-8.357c.326-1.304-.518-1.849-1.465-2.324a3.656 3.656 0 0 0-.35-.15 7.318 7.318 0 0 0-3.542-.412c-.812.104-1.575.362-2.218.906-1.23 1.04-1.237 2.98.012 3.998.326.267.717.475 1.11.629.934.367 1.915.407 2.9.28 1.126-.146 2.183-.48 3.073-1.244.335-.288.56-.607.485-1.086-.03-.195-.005-.398-.005-.597zM126.32 36c-.644-.118-1.303-.182-1.93-.362-2.72-.78-4.83-2.354-5.762-5.14-.962-2.877-.724-5.682 1.145-8.17 1.147-1.528 2.763-2.359 4.585-2.749 2.676-.573 5.278-.294 7.777.852a6.988 6.988 0 0 1 2.413 1.822c.016-.132.034-.216.034-.3.002-.703-.002-1.407.002-2.11.01-1.453-.667-2.481-1.91-3.136-1.238-.654-2.578-.769-3.943-.657-2.368.194-4.421 1.161-6.288 2.712l-2.976-5.664c.352-.274.68-.548 1.025-.796 2.313-1.653 4.9-2.585 7.685-2.97 2.552-.352 5.092-.272 7.588.422 2.141.595 3.979 1.677 5.259 3.584.906 1.35 1.35 2.866 1.505 4.474.06.618.077 1.241.078 1.861.006 5.067.003 10.134.003 15.2v.445h-8.018v-2.475c-.283.273-.496.499-.729.7-1.562 1.35-3.407 2.023-5.408 2.315-.387.057-.777.095-1.165.142h-.97zm74.677-16.344c-.053-1.459-1.15-2.895-2.666-3.497-1.193-.473-2.436-.532-3.694-.385-.943.11-1.816.419-2.565 1.012-.927.733-1.446 1.7-1.658 2.87h10.583zM195.547 36c-.668-.07-1.341-.106-2.003-.214-5.05-.82-8.884-3.319-10.627-8.224-1.745-4.91-1.136-9.605 2.236-13.74 2.069-2.538 4.836-3.967 8.069-4.487 2.878-.463 5.686-.198 8.335 1.072 3.519 1.689 5.658 4.527 6.67 8.213.31 1.133.403 2.325.596 3.49l.061.377v2.745h-18.366c.05.167.08.28.119.389.57 1.611 1.708 2.671 3.29 3.27 1.907.722 3.841.642 5.777.11 1.29-.356 2.512-.861 3.567-1.748 1.2 1.79 2.38 3.554 3.558 5.314-.04.047-.059.077-.085.1-.08.07-.16.139-.244.204-2.243 1.751-4.866 2.531-7.638 2.913-.723.1-1.453.146-2.18.216h-1.135zM77.964 36c-.745-.07-1.493-.114-2.233-.215-3.14-.43-6.09-1.364-8.658-3.301-.168-.127-.326-.268-.487-.404-.026-.021-.042-.054-.075-.098l3.363-5.783c.123.094.22.172.32.246 2.515 1.839 5.298 2.98 8.425 3.15.748.04 1.514-.095 2.26-.223.328-.057.663-.248.928-.462.761-.615.667-1.63-.214-2.035-.589-.27-1.231-.448-1.868-.579-1.627-.333-3.27-.585-4.895-.93-1.552-.33-3.04-.855-4.37-1.757-1.652-1.122-2.605-2.68-2.9-4.654-.668-4.463 1.993-7.455 5.238-8.797 1.736-.718 3.553-1.01 5.417-1.022 3.826-.026 7.357.96 10.525 3.148.087.06.171.122.256.185.018.014.03.035.066.077l-3.09 5.724c-.051-.034-.088-.052-.119-.078-2.322-1.96-5.02-2.807-8.03-2.656-.533.028-1.066.238-1.58.417-.232.08-.445.267-.618.45-.555.589-.457 1.33.287 1.628.743.296 1.535.493 2.322.646 1.883.366 3.789.615 5.624 1.203 1.222.391 2.386.9 3.416 1.681 1.5 1.137 2.387 2.644 2.677 4.501.364 2.323-.031 4.463-1.584 6.298-1.219 1.44-2.808 2.308-4.582 2.868-1.37.433-2.777.65-4.21.712-.187.008-.371.04-.557.06h-1.054zM30.869 12.188L28.48 18.38c-2.09 5.427-4.184 10.854-6.266 16.284-.108.281-.237.385-.55.379a94.288 94.288 0 0 0-3.272-.002c-.267.004-.386-.083-.48-.327-2.855-7.38-5.718-14.758-8.58-22.136a1.055 1.055 0 0 0-.229-.386v22.814H0V.145h.406c3.953 0 7.905.003 11.858-.008.297 0 .418.093.522.363 2.364 6.166 4.738 12.329 7.112 18.491.04.107.09.211.162.374.346-.899.673-1.745.997-2.592 2.075-5.434 4.15-10.867 6.222-16.301.072-.189.124-.335.398-.335 4.047.011 8.093.008 12.14.008.068 0 .137.01.228.017V35.01h-9.084V12.192l-.092-.004zm85.515 22.97h-8.134v-.454c0-4.711.005-9.423-.006-14.134 0-.546-.03-1.103-.142-1.635-.315-1.505-1.265-2.364-2.79-2.608-2.374-.38-4.366.317-5.955 2.12a1.017 1.017 0 0 0-.232.618c-.012 5.202-.01 10.404-.01 15.606v.503h-.398c-2.446 0-4.891-.007-7.337.008-.33.002-.404-.1-.404-.414.008-11.468.007-22.936.008-34.405 0-.114.009-.229.015-.363h8.106v12.754c.12-.103.188-.155.247-.216 1.882-1.962 4.209-3.025 6.88-3.37 1.904-.244 3.79-.157 5.604.524 2.544.954 3.944 2.855 4.392 5.488.104.607.148 1.231.149 1.848.01 5.927.006 11.854.007 17.781v.349zm56.553.024V0h8.196v35.182h-8.196z"></path></svg>