<svg xmlns="http://www.w3.org/2000/svg" width="154" height="36" viewBox="0 0 154 36"><path fill-rule="evenodd" d="M36 18c0 9.945-8.055 18-18 18S0 27.945 0 18 8.055 0 18 0s18 8.055 18 18zm-15.6 0h-5.1v-5.4h5.1c1.485 0 2.7 1.215 2.7 2.7S21.885 18 20.4 18zm0-9h-8.7v18h3.6v-5.4h5.1a6.3 6.3 0 0 0 6.3-6.3A6.3 6.3 0 0 0 20.4 9zm34.515 6.795c0-.99-.765-1.59-1.755-1.59h-2.655v3.165h2.655c.99 0 1.755-.6 1.755-1.575zM48 24V12h5.52c2.565 0 3.96 1.725 3.96 3.795 0 2.055-1.41 3.78-3.96 3.78h-3V24H48zm10.995 0v-8.745h2.25v1.155c.615-.735 1.665-1.365 2.73-1.365v2.19a3.441 3.441 0 0 0-.615-.045c-.75 0-1.74.42-2.1.975v5.85h-2.265V24zm12.525-4.485c0-1.32-.78-2.475-2.19-2.475-1.395 0-2.175 1.155-2.175 2.475 0 1.35.78 2.49 2.175 2.49 1.41 0 2.19-1.155 2.19-2.49zm-6.705 0c0-2.415 1.695-4.47 4.5-4.47 2.835 0 4.53 2.055 4.53 4.47 0 2.415-1.695 4.485-4.53 4.485-2.805 0-4.5-2.07-4.5-4.485zm16.59 1.515v-3.015c-.375-.57-1.185-.975-1.92-.975-1.29 0-2.175 1.005-2.175 2.475 0 1.485.885 2.49 2.175 2.49.735 0 1.545-.405 1.92-.975zm0 2.97v-1.305c-.675.855-1.59 1.305-2.64 1.305-2.145 0-3.78-1.62-3.78-4.485 0-2.775 1.605-4.47 3.78-4.47 1.005 0 1.965.42 2.64 1.305V12h2.265v12h-2.265zm10.245 0v-1.29a4.077 4.077 0 0 1-3 1.29c-1.875 0-2.76-1.02-2.76-2.685v-6.06h2.25v5.175c0 1.185.615 1.575 1.575 1.575.87 0 1.56-.48 1.95-.975v-5.775h2.25V24H91.65zm3.93-4.485c0-2.61 1.905-4.47 4.53-4.47 1.755 0 2.805.765 3.375 1.545l-1.47 1.38c-.405-.6-1.02-.915-1.8-.915-1.365 0-2.31.99-2.31 2.475s.96 2.49 2.31 2.49c.78 0 1.395-.36 1.8-.93l1.47 1.38c-.57.78-1.62 1.56-3.375 1.56-2.625-.03-4.53-1.89-4.53-4.515zm9.84 2.13v-4.44h-1.41V15.24h1.41v-2.325h2.25v2.34h1.725v1.965h-1.725v3.84c0 .555.285.96.78.96.33 0 .66-.12.78-.27l.48 1.71c-.33.3-.93.555-1.875.555-1.59-.015-2.415-.825-2.415-2.37zM123.765 24v-5.175H118.2V24h-2.505V12h2.505v4.635h5.565V12h2.535v12h-2.535zm10.56 0v-1.29a4.077 4.077 0 0 1-3 1.29c-1.875 0-2.76-1.02-2.76-2.685v-6.06h2.25v5.175c0 1.185.615 1.575 1.575 1.575.87 0 1.56-.48 1.95-.975v-5.775h2.25V24h-2.265zm10.23 0v-5.37c0-1.185-.615-1.59-1.575-1.59-.885 0-1.56.495-1.95.99V24h-2.25v-8.745h2.25v1.095c.555-.63 1.605-1.305 2.985-1.305 1.89 0 2.79 1.065 2.79 2.715V24h-2.25zm4.95-2.355v-4.44h-1.41V15.24h1.41v-2.325h2.25v2.34h1.725v1.965h-1.725v3.84c0 .555.285.96.78.96.33 0 .66-.12.78-.27l.48 1.71c-.33.3-.93.555-1.875.555-1.59-.015-2.415-.825-2.415-2.37z"></path></svg>