<svg width="110" height="14" viewBox="0 0 110 14" fill="none" xmlns="http://www.w3.org/2000/svg">
    <g id="Codementor logotype">
        <path id="Codementor logotype_2" fill-rule="evenodd" clip-rule="evenodd"
              d="M15.635 3.826c.825 0 1.559.136 2.2.408.64.272 1.182.635 1.626 1.088.443.454.782.98 1.016 1.578.234.599.351 1.225.351 1.877a5.23 5.23 0 0 1-.342 1.878 4.543 4.543 0 0 1-1.007 1.578 4.813 4.813 0 0 1-1.635 1.079c-.647.266-1.384.4-2.209.4-.825 0-1.562-.134-2.208-.4a4.804 4.804 0 0 1-1.636-1.079 4.544 4.544 0 0 1-1.008-1.578 5.237 5.237 0 0 1-.34-1.878c0-.652.113-1.278.34-1.877a4.543 4.543 0 0 1 1.008-1.578 4.926 4.926 0 0 1 1.636-1.088c.646-.272 1.383-.408 2.208-.408zm23.471 0c.825 0 1.558.133 2.2.399.64.266 1.182.626 1.626 1.08.444.453.779.976 1.007 1.568a5.16 5.16 0 0 1 .342 1.868c0 .17-.006.336-.018.499-.013.163-.031.306-.056.426h-7.171c.05.641.286 1.128.712 1.46a2.29 2.29 0 0 0 1.45.5c.432 0 .847-.103 1.248-.31.4-.205.668-.483.804-.834l2.513.69c-.381.75-.973 1.36-1.774 1.832-.8.472-1.762.707-2.883.707-.813 0-1.543-.13-2.19-.39a4.862 4.862 0 0 1-1.645-1.061 4.528 4.528 0 0 1-1.026-1.55 4.923 4.923 0 0 1-.35-1.842c0-.69.116-1.339.35-1.95a4.71 4.71 0 0 1 1.017-1.605 4.75 4.75 0 0 1 1.636-1.088c.646-.266 1.383-.4 2.208-.4zm28.424 0c.826 0 1.558.133 2.2.399a4.837 4.837 0 0 1 1.626 1.08c.444.453.78.976 1.007 1.568.228.592.342 1.215.342 1.868 0 .17-.007.336-.019.499-.012.163-.03.306-.055.426h-7.17c.048.641.286 1.128.71 1.46.426.333.91.5 1.452.5.43 0 .846-.103 1.247-.31.4-.205.668-.483.804-.834l2.513.69c-.381.75-.973 1.36-1.774 1.832s-1.762.707-2.883.707c-.813 0-1.543-.13-2.19-.39a4.86 4.86 0 0 1-1.644-1.061 4.521 4.521 0 0 1-1.026-1.55 4.923 4.923 0 0 1-.351-1.842c0-.69.117-1.339.35-1.95a4.705 4.705 0 0 1 1.017-1.605 4.75 4.75 0 0 1 1.636-1.088c.646-.266 1.383-.4 2.208-.4zM88.876.978v3.029h1.978v2.195h-1.978v3.972c0 .315.083.541.25.68a.934.934 0 0 0 .62.209c.209 0 .43-.036.664-.109.234-.072.444-.15.629-.236l.554 2.304c-.406.17-.868.326-1.386.471a5.866 5.866 0 0 1-1.59.218 3.87 3.87 0 0 1-1.043-.136 2.345 2.345 0 0 1-.86-.435c-.246-.2-.44-.463-.582-.789-.142-.327-.213-.72-.213-1.18v-4.97h-1.238V4.008h1.238V.978h2.957zm8.354 2.848c.825 0 1.558.136 2.2.408.64.272 1.182.635 1.626 1.088.443.454.782.98 1.016 1.578.234.599.351 1.225.351 1.877a5.23 5.23 0 0 1-.342 1.878 4.542 4.542 0 0 1-1.007 1.578 4.815 4.815 0 0 1-1.636 1.079c-.646.266-1.383.4-2.208.4-.826 0-1.562-.134-2.209-.4a4.804 4.804 0 0 1-1.635-1.079 4.54 4.54 0 0 1-1.008-1.578 5.23 5.23 0 0 1-.341-1.878c0-.652.113-1.278.341-1.877a4.54 4.54 0 0 1 1.008-1.578 4.926 4.926 0 0 1 1.635-1.088c.647-.272 1.383-.408 2.209-.408zM32.065.289v9.976c0 .29.055.493.166.607.11.116.308.185.591.21v2.448a7.252 7.252 0 0 1-1.423.145c-1.035-.025-1.626-.43-1.774-1.216l-.055-.507a3.407 3.407 0 0 1-1.405 1.324c-.58.29-1.201.435-1.866.435a4.497 4.497 0 0 1-1.84-.372 4.269 4.269 0 0 1-1.45-1.043 4.896 4.896 0 0 1-.952-1.569 5.474 5.474 0 0 1-.341-1.968c0-.689.104-1.336.313-1.94.21-.605.505-1.128.887-1.57a4.202 4.202 0 0 1 1.359-1.042c.523-.254 1.1-.381 1.728-.381.665 0 1.275.157 1.83.471.554.315.98.738 1.275 1.27V.29h2.957zM5.212 3.826c1.12 0 2.063.233 2.827.698.764.466 1.337 1.073 1.72 1.823l-2.884.852c-.382-.604-.942-.906-1.682-.906-.616 0-1.13.223-1.543.67-.413.448-.62 1.047-.62 1.796 0 .375.056.717.167 1.025.11.308.265.571.462.79.197.217.428.386.693.507.265.121.545.181.84.181.37 0 .71-.087 1.017-.262.308-.176.536-.402.685-.681l2.882.871c-.357.738-.927 1.342-1.709 1.814s-1.735.707-2.855.707c-.814 0-1.543-.136-2.19-.408a5.025 5.025 0 0 1-1.645-1.088 4.584 4.584 0 0 1-1.026-1.578A5.105 5.105 0 0 1 0 8.759c0-.653.117-1.278.351-1.877a4.649 4.649 0 0 1 1.016-1.578 4.817 4.817 0 0 1 1.636-1.08c.647-.265 1.383-.398 2.209-.398zm75.255 0c.629 0 1.137.112 1.525.335.388.224.686.514.896.871.21.357.348.747.416 1.17.068.423.102.834.102 1.233v6.095h-2.957V8.179c0-.629-.12-1.085-.36-1.37-.241-.284-.559-.426-.953-.426-.21 0-.422.043-.637.127a2.39 2.39 0 0 0-.61.354 3.11 3.11 0 0 0-.526.535c-.16.206-.284.43-.37.671v5.46h-2.957V4.007h2.66v1.596c.358-.568.863-1.006 1.516-1.315.653-.308 1.405-.462 2.255-.462zm-22.4 0c.617 0 1.113.112 1.489.335.375.224.668.514.877.871.21.357.348.747.416 1.17.068.423.102.834.102 1.233v6.095h-2.957V8.179c0-.629-.114-1.085-.342-1.37a1.113 1.113 0 0 0-.915-.426c-.394 0-.78.158-1.155.472-.376.314-.65.72-.822 1.215v5.46h-2.957V8.179c0-.629-.114-1.085-.342-1.37a1.113 1.113 0 0 0-.915-.426c-.395 0-.78.154-1.155.463-.376.308-.65.716-.822 1.224v5.46h-2.957V4.007h2.66v1.596a3.483 3.483 0 0 1 1.46-1.324c.617-.302 1.332-.453 2.145-.453.394 0 .745.048 1.053.145.308.097.57.23.786.399a2.39 2.39 0 0 1 .84 1.306 3.66 3.66 0 0 1 1.442-1.37c.604-.32 1.294-.48 2.07-.48zm51.472.036c.246 0 .399.006.461.018v2.612c-.714.012-1.358.127-1.931.345-.573.217-.995.544-1.266.98v5.713h-2.957V4.007h2.717V5.93c.345-.641.779-1.14 1.303-1.497a3.157 3.157 0 0 1 1.673-.571zm-12.31 2.43c-.307 0-.594.061-.858.182-.266.12-.493.29-.684.508a2.427 2.427 0 0 0-.453.789c-.11.308-.166.644-.166 1.006 0 .75.203 1.352.61 1.805.406.454.923.68 1.552.68a1.983 1.983 0 0 0 1.524-.689c.192-.218.343-.48.453-.789a2.95 2.95 0 0 0 .167-1.007c0-.75-.203-1.35-.61-1.804a1.973 1.973 0 0 0-1.534-.68zm-81.594 0c-.308 0-.595.061-.86.182-.264.12-.492.29-.683.508a2.421 2.421 0 0 0-.453.789c-.11.308-.166.644-.166 1.006 0 .75.203 1.352.61 1.805.406.454.923.68 1.552.68a1.982 1.982 0 0 0 1.525-.689c.19-.218.342-.48.453-.789a2.95 2.95 0 0 0 .166-1.007c0-.75-.203-1.35-.61-1.804a1.973 1.973 0 0 0-1.534-.68zm11.31 0c-.32 0-.613.07-.878.209-.265.14-.495.324-.692.553-.198.23-.349.496-.453.798a2.917 2.917 0 0 0-.158.962c0 .713.216 1.3.648 1.76.43.459.991.688 1.681.688a2.13 2.13 0 0 0 1.165-.353c.37-.236.659-.56.869-.97V7.942a2.628 2.628 0 0 0-.897-1.188c-.413-.308-.84-.462-1.285-.462zm12.124-.38c-.58 0-1.057.178-1.433.535-.375.356-.594.831-.655 1.424h4.177c-.062-.605-.284-1.082-.666-1.433-.382-.35-.856-.526-1.423-.526zm28.424 0c-.579 0-1.056.178-1.432.535-.376.356-.595.831-.656 1.424h4.177c-.062-.605-.284-1.082-.666-1.433-.382-.35-.856-.526-1.423-.526z"
              fill="#000"></path>
    </g>
</svg>