<svg xmlns="http://www.w3.org/2000/svg" width="277" height="36" viewBox="0 0 277 36"><path fill-rule="evenodd" d="M0 1.41h28.444v8.222h-9.515v25.834H9.513V9.632H0V1.411zm38.874 14.45c-1.99 0-3.107 1.361-3.397 3.891h7.28c-.438-2.578-1.312-3.892-3.883-3.892zm11.552 9.34h-14.95c.291 2.822 1.94 4.085 4.32 4.085 2.232 0 4.078-.487 6.601-1.8l3.349 5.595C46.592 34.93 43.338 36 39.36 36c-7.67 0-11.892-5.45-11.892-13.283 0-8.804 4.95-13.328 11.648-13.328 6.99 0 11.36 4.622 11.36 14.107 0 .731 0 1.266-.05 1.705zM66.68 36c-7.474 0-11.94-4.766-11.94-13.378 0-7.834 3.98-13.233 12.134-13.233 4.806 0 7.573 2.237 9.805 5.838L70.66 19.8c-1.213-2.239-2.04-3.309-3.93-3.309-2.235 0-3.351 2.238-3.351 6.276 0 4.04 1.213 6.13 3.592 6.13 1.65 0 2.815-.924 4.417-3.309l5.532 4.33C73.961 34.298 71.195 36 66.681 36zm29.796-.534v-14.5c0-3.307-1.115-4.183-2.912-4.183-1.846 0-2.962.876-2.962 4.087v14.596h-8.737V3.503L90.603 0v11.626c1.602-1.216 3.398-2.237 6.407-2.237 5.583 0 8.253 3.745 8.253 10.46v15.617h-8.786zm29.7.534c-10.096 0-15.485-7.492-15.485-17.563 0-10.946 6.407-17.562 15.533-17.562 8.35 0 11.65 3.6 13.98 10.022l-8.542 3.357c-1.216-3.162-2.38-5.157-5.486-5.157-3.931 0-5.63 3.94-5.63 9.34 0 5.207 1.65 9.341 5.727 9.341 2.96 0 4.223-1.606 6.066-4.816l7.962 4.232C138.02 31.67 134.233 36 126.177 36zm35.616-16.444c-1.116-1.216-2.377-2.14-4.075-2.14-2.138 0-3.448 1.021-3.448 4.135v13.915h-8.736V9.924h8.736v1.848c1.505-1.46 3.204-2.383 5.438-2.383 1.843 0 3.107.436 4.126 1.07l-2.04 9.097zm20.772 15.91V33.76c-1.554 1.216-3.398 2.239-6.357 2.239-5.583 0-8.254-3.745-8.254-10.462V9.923h8.786v14.5c0 3.306 1.116 4.181 2.913 4.181 1.796 0 2.912-.875 2.912-4.087V9.923h8.786v25.543h-8.786zm29.7 0v-14.5c0-3.307-1.117-4.183-2.913-4.183-1.846 0-2.962.876-2.962 4.087v14.596h-8.737V9.923h8.737v1.703c1.602-1.216 3.398-2.237 6.407-2.237 5.583 0 8.253 3.745 8.253 10.46v15.617h-8.786zm25.813.534c-7.473 0-11.94-4.766-11.94-13.378 0-7.834 3.98-13.233 12.134-13.233 4.806 0 7.573 2.237 9.806 5.838l-6.02 4.573c-1.213-2.239-2.04-3.309-3.93-3.309-2.235 0-3.35 2.238-3.35 6.276 0 4.04 1.213 6.13 3.591 6.13 1.65 0 2.815-.924 4.417-3.309l5.533 4.33c-2.96 4.38-5.727 6.082-10.24 6.082zm29.797-.534v-14.5c0-3.307-1.117-4.183-2.913-4.183-1.845 0-2.961.876-2.961 4.087v14.596h-8.737V3.503L262 0v11.626c1.601-1.216 3.398-2.237 6.407-2.237 5.583 0 8.253 3.745 8.253 10.46v15.617h-8.786z"></path></svg>